<?xml version="1.0" encoding="UTF-8"?>
<svg version="1.1" xmlns="http://www.w3.org/2000/svg" width="763" height="252">
<path d="M0 0 C11.22 0 22.44 0 34 0 C34.01458252 3.97248779 34.02916504 7.94497559 34.04418945 12.0378418 C34.09448231 25.14961789 34.16091723 38.26127025 34.23571491 51.37292767 C34.28067795 59.32404442 34.32009141 67.27511632 34.34643555 75.22631836 C34.36941156 82.1566995 34.40280505 89.08693879 34.44870156 96.01720744 C34.47263928 99.68665567 34.49136439 103.35596337 34.49761391 107.0254879 C34.50478626 111.12225744 34.53521618 115.21853793 34.56762695 119.31518555 C34.56619186 120.53150665 34.56475677 121.74782776 34.5632782 123.00100708 C34.57581635 124.11854874 34.58835449 125.23609039 34.60127258 126.38749695 C34.60588155 127.35630137 34.61049051 128.3251058 34.61523914 129.32326794 C35.07486541 132.52082908 36.09975045 134.40585107 38 137 C43.17620811 139.63994589 48.75620311 139.33240644 54.4375 139.3125 C55.35337891 139.32861328 56.26925781 139.34472656 57.21289062 139.36132812 C62.90691449 139.36541572 67.00553569 138.80979744 72 136 C74.22872352 132.65691472 74.25605803 131.56989364 74.2784729 127.66596985 C74.28963638 126.55959167 74.30079987 125.4532135 74.31230164 124.31330872 C74.31446182 123.0991478 74.31662201 121.88498688 74.31884766 120.6340332 C74.32889328 119.35587738 74.3389389 118.07772156 74.34928894 116.76083374 C74.37661937 113.25493763 74.39174728 109.74908178 74.40471697 106.24310708 C74.42033425 102.57952008 74.44712891 98.91601544 74.4727478 95.25248718 C74.5195605 88.31463004 74.55629251 81.37675744 74.58942068 74.43882293 C74.6276245 66.54042476 74.67703919 58.64210925 74.72740483 50.74378073 C74.83076176 34.49590749 74.91852983 18.24799997 75 2 C86.55 2 98.1 2 110 2 C109.98952637 5.7552002 109.97905273 9.51040039 109.96826172 13.37939453 C109.93513591 25.78060431 109.912934 38.1818134 109.89637566 50.5830555 C109.88606832 58.10259381 109.87201837 65.62209018 109.84912109 73.14160156 C109.82917059 79.69651788 109.81627961 86.2514038 109.81182301 92.80634964 C109.80921844 96.27631446 109.8031079 99.74619237 109.78853989 103.2161293 C109.77239924 107.09218206 109.77202139 110.96815019 109.77294922 114.84423828 C109.76216339 116.56514427 109.76216339 116.56514427 109.75115967 118.32081604 C109.68149702 125.8869899 109.68149702 125.8869899 112 133 C116.97055201 134.65685067 122.13510547 134.30338389 127.34179688 134.35009766 C128.69385999 134.36665751 130.04583554 134.39394924 131.39746094 134.43212891 C133.35558539 134.48707871 135.3146228 134.505666 137.2734375 134.5234375 C138.44310059 134.54325684 139.61276367 134.56307617 140.81787109 134.58349609 C145.21184923 133.77778735 146.35776997 132.62148017 149 129 C149.75752398 125.02300531 149.68993996 121.08805734 149.65942383 117.04956055 C149.66990753 115.83938766 149.68039124 114.62921478 149.69119263 113.38237 C149.71502662 110.07239376 149.71687439 106.76378265 149.70889878 103.45382285 C149.70577094 99.99172672 149.73081606 96.52983625 149.75285339 93.06782532 C149.79028813 86.51600083 149.80244102 79.96438389 149.8054778 73.41246301 C149.81016928 65.95168778 149.84309536 58.49112039 149.87837565 51.03043687 C149.9503008 35.68693232 149.98309839 20.34367881 150 5 C161.55 5 173.1 5 185 5 C185.06793429 19.76961087 185.12310756 34.53912352 185.15543652 49.30885601 C185.17085184 56.16795668 185.19183812 63.0269528 185.22631836 69.88598633 C185.25961383 76.51254337 185.27688296 83.13902082 185.28463173 89.76566505 C185.2901498 92.2864534 185.30092489 94.80723622 185.31719017 97.32797813 C185.44834351 118.50723075 184.75397384 135.59091557 169.4140625 151.77734375 C155.83616222 164.27867912 139.11645119 165.61332331 121.59863281 165.13183594 C112.68936256 164.67984365 105.89596591 161.81503677 98.47265625 157.01171875 C96.02416925 155.72334037 96.02416925 155.72334037 93.44140625 156.65234375 C91.11667302 157.93559649 89.01446103 159.30497727 86.875 160.875 C73.48104184 170.03575065 56.40459724 170.76527351 40.71972656 168.69970703 C32.64794051 167.14744048 25.66813014 163.7134649 19 159 C17.948125 158.2575 16.89625 157.515 15.8125 156.75 C7.26859579 148.39596033 0.45233371 136.55282863 -0.12304783 124.40135479 C-0.12212604 123.46942208 -0.12120424 122.53748938 -0.12025452 121.57731628 C-0.12162918 120.5018454 -0.12300385 119.42637451 -0.12442017 118.3183136 C-0.12082489 117.14874619 -0.11722961 115.97917877 -0.11352539 114.77416992 C-0.11367142 113.53473633 -0.11381744 112.29530273 -0.1139679 111.01831055 C-0.11339137 107.62819488 -0.10838247 104.23814041 -0.10139394 100.84803557 C-0.0951348 97.30195659 -0.09455457 93.75587675 -0.09336853 90.20979309 C-0.09026276 83.49862597 -0.08205954 76.78747517 -0.07201904 70.07631522 C-0.06083448 62.43426713 -0.05534155 54.79221825 -0.05032361 47.15016401 C-0.0398763 31.43343161 -0.0215402 15.7167217 0 0 Z " fill="#00CFFF" transform="translate(429,37)"/>
<path d="M0 0 C1.3450486 -0.00855011 1.3450486 -0.00855011 2.7172699 -0.01727295 C4.61431711 -0.02670214 6.51138055 -0.03324864 8.40844727 -0.03710938 C11.27455271 -0.04676037 14.13992366 -0.07778084 17.00585938 -0.109375 C35.3856421 -0.21696808 49.75813709 2.74365894 63.5234375 15.7890625 C72.86268562 25.93256924 76.87781851 39.10928833 76.86634827 52.70152283 C76.86841026 54.59652023 76.86841026 54.59652023 76.87051392 56.52980042 C76.86697572 57.91171289 76.86334092 59.29362512 76.85961914 60.67553711 C76.85933678 62.14453123 76.85949596 63.61352549 76.86006165 65.08251953 C76.86034771 69.05513128 76.85448178 73.02771263 76.84748769 77.00031734 C76.84122243 81.15764507 76.84064784 85.31497357 76.83946228 89.4723053 C76.83635831 97.33796521 76.82815753 105.20361117 76.81811279 113.06926495 C76.80692263 122.02693328 76.80143389 130.98460229 76.79641736 139.94227588 C76.78597412 158.36256843 76.76764027 176.78284186 76.74609375 195.203125 C65.19609375 195.203125 53.64609375 195.203125 41.74609375 195.203125 C41.43359375 181.015625 41.43359375 181.015625 41.3581543 176.56567383 C41.3250415 175.40060303 41.29192871 174.23553223 41.2578125 173.03515625 C41.23162842 171.84639893 41.20544434 170.6576416 41.1784668 169.43286133 C40.5656988 164.85561241 39.14623309 162.39077795 35.63867188 159.41552734 C31.54796151 157.70093689 27.85876334 157.77349156 23.46484375 157.8046875 C22.57373901 157.80181732 21.68263428 157.79894714 20.76452637 157.79598999 C18.88516604 157.79395338 17.00578432 157.79945502 15.12646484 157.81201172 C12.25570109 157.82807125 9.38634515 157.81214951 6.515625 157.79296875 C4.68619482 157.79495125 2.85676551 157.79879508 1.02734375 157.8046875 C-0.25565613 157.79557846 -0.25565613 157.79557846 -1.5645752 157.7862854 C-7.30348638 157.8537572 -10.57215881 158.90448433 -15.00390625 162.703125 C-17.70775864 165.94774786 -17.44263491 169.59012972 -17.5703125 173.62109375 C-17.60842041 174.7505542 -17.64652832 175.88001465 -17.68579102 177.04370117 C-17.72889404 178.47818604 -17.77199707 179.9126709 -17.81640625 181.390625 C-17.96078125 185.94875 -18.10515625 190.506875 -18.25390625 195.203125 C-29.80390625 195.203125 -41.35390625 195.203125 -53.25390625 195.203125 C-53.2991366 176.24395248 -53.33594394 157.28482398 -53.35753059 138.32561111 C-53.36782219 129.5215791 -53.38184184 120.71758311 -53.40478516 111.91357422 C-53.42478407 104.23572634 -53.43763806 96.55790456 -53.44208324 88.88003135 C-53.44467965 84.81855012 -53.45073776 80.75714353 -53.46536636 76.69568634 C-53.47905326 72.86423985 -53.48310671 69.03289798 -53.48012161 65.20142937 C-53.48066685 63.80353919 -53.48457762 62.40564511 -53.4923172 61.00777626 C-53.5855009 43.29201746 -51.1644 27.29017251 -38.25390625 14.203125 C-27.17364098 4.36744491 -14.59181219 0.07250931 0 0 Z M-15.25390625 34.203125 C-18.46498215 39.26815309 -18.67072313 43.34978057 -18.59448242 49.14599609 C-18.5949205 50.0246936 -18.59535858 50.90339111 -18.59580994 51.80871582 C-18.5937285 54.69822812 -18.57042789 57.5871522 -18.546875 60.4765625 C-18.54127675 62.4858061 -18.53700774 64.49505381 -18.53401184 66.50430298 C-18.5225811 71.78154898 -18.49312905 77.05854559 -18.4598999 82.33569336 C-18.42375231 88.6733332 -18.41002944 95.01105662 -18.39253998 101.34877014 C-18.36349077 110.96706165 -18.30599101 120.58480641 -18.25390625 130.203125 C1.54609375 130.203125 21.34609375 130.203125 41.74609375 130.203125 C41.86245544 114.1758094 41.86245544 114.1758094 41.94140625 98.1484375 C41.96530908 91.61054485 41.99357329 85.07287648 42.04785156 78.53515625 C42.09134231 73.26372954 42.11523794 67.99254337 42.12560272 62.72095108 C42.13298825 60.71070698 42.1474105 58.7004759 42.16901398 56.69033432 C42.19809065 53.8725321 42.20204794 51.0557213 42.20019531 48.23779297 C42.21457642 47.40844742 42.22895752 46.57910187 42.24377441 45.72462463 C42.20600909 40.40915592 41.24320973 37.43784917 37.74609375 33.203125 C33.35157488 29.44086809 28.79430256 29.75101519 23.28125 29.76953125 C21.91485634 29.76166847 21.91485634 29.76166847 20.52085876 29.75364685 C18.59863299 29.74723734 16.67636793 29.74854977 14.75415039 29.75708008 C11.82171392 29.76558694 8.89122843 29.73681929 5.95898438 29.70507812 C4.08724016 29.7034658 2.21549252 29.70404423 0.34375 29.70703125 C-0.96431862 29.69018028 -0.96431862 29.69018028 -2.29881287 29.67298889 C-7.73367743 29.7348419 -11.06456848 30.40825455 -15.25390625 34.203125 Z " fill="#00CFFF" transform="translate(331.25390625,23.796875)"/>
<path d="M0 0 C81.49233716 0 81.49233716 0 95 11 C107.84377098 23.86572614 110.2941 38.78261517 110.32226562 56.15625 C110.32009033 57.01476562 110.31791504 57.87328125 110.31567383 58.7578125 C110.31251527 61.3624059 110.33603024 63.96585891 110.36132812 66.5703125 C110.42225581 82.30974654 108.3913423 96.55977968 97.0625 108.4375 C88.97202259 116 88.97202259 116 84 116 C90.75881569 127.91778082 97.589027 139.78585516 104.63354492 151.53759766 C105.1463501 152.39788574 105.65915527 153.25817383 106.1875 154.14453125 C106.63480469 154.89065674 107.08210938 155.63678223 107.54296875 156.40551758 C109.48810129 159.86914417 111.2234725 163.446945 113 167 C100.79 167 88.58 167 76 167 C74.06125 163.57625 72.1225 160.1525 70.125 156.625 C69.4851416 155.49747314 68.8452832 154.36994629 68.18603516 153.20825195 C65.44170474 148.36356904 62.71967728 143.51129222 60.0859375 138.60546875 C59.64620605 137.79190918 59.20647461 136.97834961 58.75341797 136.14013672 C57.9386556 134.62709728 57.13248266 133.10938983 56.33642578 131.58642578 C55.96759277 130.90435059 55.59875977 130.22227539 55.21875 129.51953125 C54.7537207 128.63938354 54.7537207 128.63938354 54.27929688 127.74145508 C48.8132358 120.30072729 44.60901792 121.47831045 35 120 C35 134.19 35 148.38 35 163 C23.45 163 11.9 163 0 163 C0 109.21 0 55.42 0 0 Z M35 28 C35 49.78 35 71.56 35 94 C63.34775564 96.38513918 63.34775564 96.38513918 73 91 C75.2066792 87.6899812 75.25917886 86.63702202 75.29052734 82.78173828 C75.30328705 81.71698273 75.31604675 80.65222717 75.32919312 79.5552063 C75.33141876 78.40519135 75.33364441 77.25517639 75.3359375 76.0703125 C75.3425943 74.88782928 75.3492511 73.70534607 75.35610962 72.48703003 C75.36624231 69.98371946 75.37092645 67.48038184 75.37060547 64.97705078 C75.37497489 61.14700771 75.41128004 57.31812006 75.44921875 53.48828125 C75.45508745 51.05729561 75.45905649 48.62630449 75.4609375 46.1953125 C75.47530853 45.04934601 75.48967957 43.90337952 75.50448608 42.72268677 C75.51531093 36.45674817 75.51531093 36.45674817 73.09619141 30.80029297 C69.31537141 27.55317363 66.14554746 27.86857348 61.3671875 27.90234375 C60.70082275 27.90335083 60.03445801 27.90435791 59.34790039 27.90539551 C56.85691611 27.91063045 54.36595634 27.92459171 51.875 27.9375 C46.30625 27.958125 40.7375 27.97875 35 28 Z " fill="#00CFFF" transform="translate(148,38)"/>
<path d="M0 0 C80.01348499 0 80.01348499 0 94.84375 12.83203125 C105.45764604 23.5036115 106.47641978 35.38119369 106.46875 49.64453125 C106.47586604 51.26202147 106.4835671 52.87950921 106.49182129 54.49699402 C106.50521492 57.87672959 106.50685843 61.25623177 106.50097656 64.63598633 C106.49509005 68.93628376 106.52565162 73.23544846 106.56609344 77.53552723 C106.5921282 80.87389506 106.59483362 84.21199595 106.59120178 87.55045128 C106.59287882 89.13427255 106.60238258 90.71810809 106.62034607 92.30182838 C106.75260919 105.40403958 104.66622108 116.27386401 95.22265625 126.03515625 C70.49766093 147.89222593 26.9680932 139 0 139 C0 93.13 0 47.26 0 0 Z M34 26 C34 54.05 34 82.1 34 111 C60.68436069 113.57247878 60.68436069 113.57247878 69 108 C72.07986736 104.10571305 72.37844727 101.07120059 72.38818359 96.17773438 C72.39606903 95.17919182 72.39606903 95.17919182 72.40411377 94.16047668 C72.41726183 91.97132544 72.40859481 89.78290797 72.3984375 87.59375 C72.40045975 86.06587587 72.40337244 84.53800268 72.40713501 83.01013184 C72.4115513 79.81248763 72.40514992 76.61509533 72.39111328 73.41748047 C72.37402156 69.3251312 72.3838665 65.23337224 72.40183067 61.14104462 C72.41268745 57.98740211 72.40921354 54.83389884 72.4014473 51.68025208 C72.39945051 50.17161488 72.40188621 48.66296492 72.40888596 47.15434265 C72.41653196 45.04331122 72.40485374 42.93322678 72.38818359 40.82226562 C72.38460342 39.02287537 72.38460342 39.02287537 72.38095093 37.18713379 C71.95300852 33.60685715 71.2291877 31.81865923 69 29 C60.68436069 23.42752122 60.68436069 23.42752122 34 26 Z " fill="#00CFFF" transform="translate(635,52)"/>
<path d="M0 0 C-0.60312836 4.00315668 -1.87388644 6.99786227 -3.80859375 10.54296875 C-4.38593262 11.60805664 -4.96327148 12.67314453 -5.55810547 13.77050781 C-6.17830566 14.89811523 -6.79850586 16.02572266 -7.4375 17.1875 C-8.07747227 18.3613885 -8.71695418 19.53554446 -9.35595703 20.70996094 C-11.22801979 24.14509659 -13.11291733 27.5730907 -15 31 C-15.74805908 32.3614917 -15.74805908 32.3614917 -16.51123047 33.75048828 C-20.07581595 40.23073829 -23.667682 46.69439332 -27.35546875 53.10546875 C-27.72816895 53.75354492 -28.10086914 54.40162109 -28.48486328 55.06933594 C-29.48750111 56.80748381 -30.49548947 58.54254225 -31.50390625 60.27734375 C-33.93838299 64.70771004 -34.35071451 67.9748369 -34 73 C-33.04119666 75.50273741 -32.07078768 77.66234984 -30.8125 80 C-30.46300293 80.67442139 -30.11350586 81.34884277 -29.75341797 82.04370117 C-25.99161102 89.2096954 -21.95648806 96.23028066 -17.94311523 103.25732422 C-13.85964953 110.41869254 -9.94931456 117.65360691 -6.15869141 124.97387695 C-5.78405762 125.69663818 -5.40942383 126.41939941 -5.0234375 127.1640625 C-4.50475098 128.16614746 -4.50475098 128.16614746 -3.97558594 129.18847656 C-3.12216257 130.7731616 -2.18087339 132.30988087 -1.2265625 133.8359375 C0 136 0 136 0 139 C-12.21 139 -24.42 139 -37 139 C-38.29035156 136.47988281 -39.58070312 133.95976562 -40.91015625 131.36328125 C-42.18416954 128.87735888 -43.45864099 126.3916719 -44.7331543 123.90600586 C-45.60732954 122.20052127 -46.48104088 120.4947988 -47.35424805 118.78881836 C-47.77552979 117.96583252 -48.19681152 117.14284668 -48.63085938 116.29492188 C-49.04919037 115.47732391 -49.46752136 114.65972595 -49.89852905 113.81735229 C-50.73846493 112.18353977 -51.58336889 110.55227163 -52.43325806 108.9236145 C-54.32195133 105.30362291 -56.16495711 101.69056409 -57.83154297 97.96240234 C-58.38084473 96.79273926 -58.93014648 95.62307617 -59.49609375 94.41796875 C-59.94009521 93.40887451 -60.38409668 92.39978027 -60.84155273 91.36010742 C-63.6243754 87.85029932 -63.6243754 87.85029932 -73 87 C-73 102.84 -73 118.68 -73 135 C-84.55 135 -96.1 135 -108 135 C-108 92.1 -108 49.2 -108 5 C-96.45 5 -84.9 5 -73 5 C-73 21.83 -73 38.66 -73 56 C-64.26941571 56.08553324 -64.26941571 56.08553324 -61.33203125 51.77734375 C-60.51433802 50.20523324 -59.74179965 48.60931257 -59 47 C-58.5157959 46.00758301 -58.0315918 45.01516602 -57.53271484 43.99267578 C-55.87404222 40.53467837 -54.27583791 37.05332939 -52.6875 33.5625 C-52.11422793 32.31376087 -51.54033011 31.06530884 -50.96582031 29.81713867 C-49.83172696 27.35235413 -48.6997958 24.88659862 -47.56982422 22.41992188 C-45.48340093 17.87456924 -43.37425807 13.3402731 -41.25 8.8125 C-40.92733154 8.11906494 -40.60466309 7.42562988 -40.2722168 6.71118164 C-38.11678311 2.11678311 -38.11678311 2.11678311 -37 1 C-34.55542432 0.75155504 -32.1392907 0.57042019 -29.6875 0.4375 C-28.94508057 0.3950415 -28.20266113 0.35258301 -27.43774414 0.30883789 C-18.29555817 -0.16127762 -9.15092203 -0.08516887 0 0 Z " fill="#00CFFF" transform="translate(133,52)"/>
</svg>
